<svg width="156" height="233" viewBox="0 0 156 233" fill="none" xmlns="http://www.w3.org/2000/svg">
<path d="M217.259 170.722V251.237C196.673 256.4 179.652 260.668 159.749 265.659L153.359 224.966L159.749 184.273L187.652 172.227L217.259 170.722Z" fill="url(#paint0_linear_63_3669)"/>
<path d="M159.749 12.8192V171.938L138.305 184.03L108.629 187.865L102.239 62.544L108.629 25.8359L134.189 13.0166L159.749 12.8192Z" fill="#EDBE27"/>
<path d="M108.629 25.8359V177.44L83.0694 174.529L57.5095 161.513C57.5095 159.523 57.5095 14.8075 57.5095 12.8192L83.0694 13.0166L108.629 25.8359Z" fill="#FFD13F"/>
<path fill-rule="evenodd" clip-rule="evenodd" d="M121.63 22.5257C135.523 18.9881 155.464 13.9105 159.749 12.8193L108.629 0H108.629L57.5095 12.8193L70.3872 16.0983C84.285 19.6371 104.331 24.7413 108.629 25.8359L108.629 25.836C108.629 25.836 108.629 25.836 108.629 25.836C108.629 25.836 108.629 25.836 108.629 25.836V25.8359C110.535 25.3507 115.492 24.0884 121.63 22.5257Z" fill="#FFE288"/>
<path d="M159.749 184.273V265.659C153.405 264.068 114.881 254.408 108.629 252.84L102.239 212.534L108.629 172.228C116.174 172.596 132.061 173.372 136.532 173.59C139.352 174.887 156.919 182.971 159.749 184.273Z" fill="#5374E9"/>
<path fill-rule="evenodd" clip-rule="evenodd" d="M159.749 184.273C166.757 182.622 210.265 172.37 217.259 170.722L159.749 156.3L159.749 156.301V156.3C144.698 160.989 139.547 162.594 135.906 163.729C130.979 165.264 128.816 165.938 108.629 172.227C112.527 173.146 129.182 177.07 142.598 180.231C150.595 182.116 157.441 183.729 159.749 184.273V184.272L159.749 184.273Z" fill="#7CAEF8"/>
<path d="M57.5097 184.273L51.1197 224.965L57.5097 265.659C63.6935 264.108 102.405 254.4 108.629 252.839C108.629 248.363 108.629 176.703 108.629 172.227L83.0695 173.163L57.5097 184.273Z" fill="#4769E1"/>
<path d="M7.24792e-05 170.722V251.237C20.586 256.4 37.6063 260.668 57.5098 265.659C57.5098 261.135 57.5098 188.796 57.5098 184.273L28.7549 172.227L7.24792e-05 170.722Z" fill="#6C8DFF"/>
<path fill-rule="evenodd" clip-rule="evenodd" d="M57.5095 156.3L0.000167847 170.722C6.99413 172.37 50.5006 182.621 57.5097 184.273L57.5097 184.273L57.5098 184.273C57.5098 184.273 57.5098 184.273 57.5099 184.273V184.273L83.0695 178.25L108.629 172.228C106.414 171.537 104.295 170.877 102.266 170.245C94.6054 167.858 88.2486 165.877 82.975 164.235C60.0474 157.091 57.5999 156.328 57.5099 156.3V156.3C57.5339 156.308 57.7044 156.361 57.5099 156.3V156.3L57.5098 156.3C57.5097 156.3 57.5097 156.3 57.5097 156.3L57.5095 156.3C57.508 156.3 57.5071 156.299 57.5071 156.299C57.5071 156.299 57.5079 156.3 57.5095 156.3Z" fill="#7CAEF8"/>
<defs>
<linearGradient id="paint0_linear_63_3669" x1="185.309" y1="170.722" x2="185.309" y2="265.659" gradientUnits="userSpaceOnUse">
<stop stop-color="#89F1FF"/>
<stop offset="1" stop-color="#6292DB"/>
</linearGradient>
</defs>
</svg>
