<svg width="285" height="430" viewBox="0 0 285 430" fill="none" xmlns="http://www.w3.org/2000/svg">
<path d="M-21.6687 24.5934V329.857L19.4699 353.056L76.403 360.413L88.662 119.989L76.403 49.5656L27.3671 24.9721L-21.6687 24.5934Z" fill="#5374E9"/>
<path d="M76.4023 49.5656V340.413L125.438 334.829L174.474 309.857C174.474 306.041 174.474 28.4078 174.474 24.5934L125.438 24.9721L76.4023 49.5656Z" fill="#6C8DFF"/>
<path fill-rule="evenodd" clip-rule="evenodd" d="M51.7912 43.2987C25.1247 36.5086 -13.4138 26.6956 -21.6687 24.5934L76.4023 0.000162624V0H76.403L174.474 24.5934L149.603 30.9262C122.948 37.7135 84.6329 47.4696 76.4031 49.5654L76.403 49.5656C76.4029 49.5656 76.4028 49.5655 76.4027 49.5655C76.4026 49.5655 76.4025 49.5656 76.4023 49.5656V49.5654C72.7802 48.6431 63.4132 46.258 51.7912 43.2987Z" fill="#7CAEF8"/>
<path d="M-21.6688 353.522V509.659C-9.49894 506.607 64.4079 488.073 76.4029 485.066L88.6618 407.74L76.4029 330.414C61.9275 331.12 31.4501 332.609 22.8721 333.028C17.4626 335.516 -16.2397 351.024 -21.6688 353.522Z" fill="#FFD13F"/>
<path fill-rule="evenodd" clip-rule="evenodd" d="M-21.6688 299.858V299.857C7.2771 308.876 17.1364 311.948 24.1247 314.125C33.5408 317.059 37.7448 318.369 76.4029 330.413C68.9178 332.177 36.9089 339.719 11.157 345.787C-4.15134 349.394 -17.2486 352.48 -21.6688 353.522V353.521L-21.6694 353.522C-35.115 350.354 -118.582 330.687 -132 327.525L-21.6694 299.857L-21.6688 299.858Z" fill="#FBE49D"/>
<path d="M174.474 353.522L186.733 431.59L174.474 509.658C162.61 506.683 88.344 488.059 76.4022 485.065C76.4022 476.477 76.4022 338.999 76.4022 330.413L125.438 332.207L174.474 353.522Z" fill="#F39321"/>
<path d="M284.804 327.525V481.991C245.311 491.895 212.658 500.083 174.474 509.659C174.474 500.98 174.474 362.2 174.474 353.522L229.639 330.413L284.804 327.525Z" fill="#F3A141"/>
<path fill-rule="evenodd" clip-rule="evenodd" d="M174.474 299.857L174.474 299.857C174.477 299.856 174.479 299.856 174.479 299.856C174.479 299.856 174.477 299.856 174.474 299.857L284.804 327.525C271.387 330.687 187.92 350.354 174.474 353.522C174.474 353.522 174.474 353.522 174.474 353.522L125.438 341.968L76.4022 330.414C80.6535 329.089 84.7215 327.822 88.6139 326.609C103.309 322.03 115.503 318.231 125.619 315.08C169.626 301.368 174.305 299.91 174.474 299.858V299.857C174.429 299.872 174.1 299.974 174.474 299.857V299.857L174.474 299.857Z" fill="#F8C67C"/>
</svg>
